<?xml version="1.0" encoding="UTF-8" standalone="no"?>
<svg width="213px" height="40px" viewBox="0 0 213 40" version="1.1" xmlns="http://www.w3.org/2000/svg" xmlns:xlink="http://www.w3.org/1999/xlink">
    <!-- Generator: Sketch 39.1 (31720) - http://www.bohemiancoding.com/sketch -->
    <title>Group 11 Copy</title>
    <desc>Created with Sketch.</desc>
    <defs></defs>
    <g id="Page-1" stroke="none" stroke-width="1" fill="none" fill-rule="evenodd">
        <g id="Artboard-3" transform="translate(-299.000000, -127.000000)">
            <g id="Group-11-Copy" transform="translate(299.000000, 122.000000)">
                <g id="Group-10" transform="translate(0.000000, 5.875000)" fill="#FF0070">
                    <ellipse id="Oval-4" fill-opacity="0.15" cx="25.8823529" cy="19.3875" rx="19.5695839" ry="19.3875"></ellipse>
                    <path d="M25.251076,20.2414123 C22.6138435,25.822906 16.7139185,31.8774138 7.88473504,31.2211539 C1.09597945,30.7165559 1.19620936e-10,24.1191251 0,22.1627987 C2.48621867,25.9837175 4.48338093,26.5535315 7.14363185,26.0727094 C9.80388277,25.5918874 11.9732526,20.6127749 11.9732519,18.9747619 C11.9732519,18.9747619 9.61770338,19.1442279 8.8598431,17.5073628 C13.0575511,17.8287327 13.25795,10.4048851 17.6481123,8.53786507 C22.4167415,6.50989302 24.5046708,7.59020765 25.8823529,10.7088607 C27.2600351,7.59020765 29.3479644,6.50989302 34.1165936,8.53786507 C38.5067559,10.4048851 38.7071548,17.8287327 42.9048628,17.5073628 C42.1470025,19.1442279 39.791454,18.9747619 39.791454,18.9747619 C39.7914533,20.6127749 41.9608231,25.5918874 44.621074,26.0727094 C47.2813249,26.5535315 49.2784872,25.9837175 51.7647059,22.1627987 C51.7647059,24.1191251 50.6687264,30.7165559 43.8799708,31.2211539 C35.0507874,31.8774138 29.1508624,25.822906 26.5136298,20.2414123 L26.5136298,38.775 L25.251076,38.775 L25.251076,20.2414123 Z M25.8794737,18.7620968 C25.8804342,18.7595503 25.8813939,18.757004 25.8823529,18.754458 C25.883312,18.757004 25.8842717,18.7595503 25.8852321,18.7620968 L25.8794737,18.7620968 Z" id="Combined-Shape"></path>
                </g>
                <g id="Group" transform="translate(62.352941, 0.000000)" font-family="HelveticaNeue-Bold, Helvetica Neue" font-weight="bold">
                    <g id="Group-2">
                        <text id="dummi" font-size="28.2352941" letter-spacing="1.25490203" fill="#FF0070">
                            <tspan x="4.54747351e-13" y="28">dummi </tspan>
                        </text>
                        <text id="DATA-FOR-YOUR-PROJEC" font-size="10" letter-spacing="1" fill="#666666">
                            <tspan x="4.54747351e-13" y="43.9">DATA FOR YOUR PROJEC</tspan>
                            <tspan x="144.85" y="43.9" letter-spacing="0.850000024">T</tspan>
                        </text>
                    </g>
                </g>
            </g>
        </g>
    </g>
</svg>