<?xml version="1.0" encoding="UTF-8"?>
<svg width="423px" height="323px" viewBox="0 0 423 323" version="1.1" xmlns="http://www.w3.org/2000/svg" xmlns:xlink="http://www.w3.org/1999/xlink">
    <!-- Generator: Sketch 43.2 (39069) - http://www.bohemiancoding.com/sketch -->
    <title>Group 10</title>
    <desc>Created with Sketch.</desc>
    <defs></defs>
    <g id="Page-1" stroke="none" stroke-width="1" fill="none" fill-rule="evenodd">
        <g id="Artboard-2" transform="translate(-189.000000, -87.000000)" fill="#FF0070">
            <g id="Group-11-Copy-2" transform="translate(185.000000, 87.000000)">
                <g id="Group-10" transform="translate(4.479167, 0.000000)">
                    <ellipse id="Oval-4" fill-opacity="0.15" cx="210.96875" cy="161.313559" rx="159.512957" ry="161.313559"></ellipse>
                    <path d="M216.114329,168.418531 L216.114329,322.627119 L205.823171,322.627119 L205.823171,168.418531 C184.326924,214.859302 136.236248,265.235801 64.2689905,259.775395 C8.93340012,255.576891 9.75038064e-10,200.683013 0,184.405413 C20.2653309,216.197341 36.5443309,220.938474 58.22821,216.937798 C79.9120891,212.937122 97.5947645,171.508451 97.5947582,157.879375 C97.5947582,157.879375 78.3945287,159.289415 72.21716,145.669891 C106.432952,148.343847 108.066417,86.5737746 143.850916,71.0392471 C182.720325,54.1655198 199.739173,63.1542701 210.96875,89.103001 C222.198327,63.1542701 239.217175,54.1655198 278.086584,71.0392471 C313.871083,86.5737746 315.504548,148.343847 349.72034,145.669891 C343.542971,159.289415 324.342742,157.879375 324.342742,157.879375 C324.342736,171.508451 342.025411,212.937122 363.70929,216.937798 C385.393169,220.938474 401.672169,216.197341 421.9375,184.405413 C421.9375,200.683013 413.0041,255.576891 357.66851,259.775395 C285.701252,265.235801 237.610576,214.859302 216.114324,168.418519 Z M210.992219,156.109896 C210.98439,156.088708 210.976567,156.067522 210.96875,156.046338 C210.960933,156.067522 210.95311,156.088708 210.945281,156.109896 L210.992219,156.109896 Z" id="Combined-Shape"></path>
                </g>
            </g>
        </g>
    </g>
</svg>